<svg width="15" height="16" viewBox="0 0 15 16" fill="none" xmlns="http://www.w3.org/2000/svg">
<path d="M2.84082 2.05859C2.84082 1.53921 3.26186 1.11816 3.78125 1.11816H9.69629V4.04492C9.69629 4.88468 10.377 5.56543 11.2168 5.56543H12.7373C12.9946 5.56543 13.2031 5.35687 13.2031 5.09961C13.2031 4.84234 12.9946 4.63379 12.7373 4.63379H11.2168C10.8916 4.63379 10.6279 4.37014 10.6279 4.04492V1.24016C10.7121 1.28781 10.7893 1.34862 10.8562 1.42119L13.7364 4.54565C13.8965 4.71932 13.9854 4.94687 13.9854 5.18306V13.9941C13.9854 14.5135 13.5643 14.9346 13.0449 14.9346H3.78125C3.26187 14.9346 2.84082 14.5135 2.84082 13.9941V11.8496C2.84082 11.5923 2.63227 11.3838 2.375 11.3838C2.11773 11.3838 1.90918 11.5923 1.90918 11.8496V13.9941C1.90918 15.0281 2.74733 15.8662 3.78125 15.8662H13.0449C14.0788 15.8662 14.917 15.0281 14.917 13.9941V5.18306C14.917 4.71288 14.7401 4.25991 14.4214 3.9142L11.5412 0.789734C11.1867 0.405244 10.6876 0.186523 10.1647 0.186523H3.78125C2.74733 0.186523 1.90918 1.02468 1.90918 2.05859V4.04984C1.90918 4.30711 2.11773 4.51566 2.375 4.51566C2.63227 4.51566 2.84082 4.30711 2.84082 4.04984V2.05859Z" fill="#E01A47"/>
<path fill-rule="evenodd" clip-rule="evenodd" d="M0.204102 8C0.204102 7.74273 0.412656 7.53418 0.669922 7.53418H6.29492C6.29506 7.53418 6.29478 7.53418 6.29492 7.53418L4.83519 6.07404C4.65328 5.89213 4.65328 5.59718 4.83519 5.41527C5.01711 5.23336 5.31205 5.23336 5.49396 5.41527L7.7562 7.6775C7.93811 7.85942 7.93811 8.15436 7.7562 8.33627L5.49396 10.5985C5.31205 10.7804 5.01711 10.7804 4.83519 10.5985C4.65328 10.4166 4.65328 10.1217 4.83519 9.93974L6.30933 8.4656C6.30454 8.46575 6.29974 8.46582 6.29492 8.46582H0.669922C0.412656 8.46582 0.204102 8.25727 0.204102 8ZM6.76052 8.01441L6.76804 8.00689L6.76074 7.99959C6.76074 7.99972 6.76074 7.99945 6.76074 7.99959C6.76074 8.00441 6.76067 8.00962 6.76052 8.01441Z" fill="#E01A47"/>
</svg>
