<svg width="56" height="56" viewBox="0 0 56 56" xmlns="http://www.w3.org/2000/svg">
    <g fill="none" fill-rule="evenodd">
        <path d="M0 0h56v56H0z"/>
        <path d="M32.966 10.418a3.855 3.855 0 0 1 3.855 3.792v1.02h1.481a1.45 1.45 0 0 1 1.45 1.426v.024a1.45 1.45 0 0 1-1.426 1.449h-2.823a1.58 1.58 0 0 1-1.58-1.555V14.273a.957.957 0 0 0-.94-.956h-9.117a.957.957 0 0 0-.957.938V16.548a1.58 1.58 0 0 1-1.555 1.58h-9.432a2.05 2.05 0 0 0-2.05 2.018v20.06c0 1.122.899 2.033 2.016 2.05l.034.001h32.167a2.05 2.05 0 0 0 2.05-2.017V26.082a1.45 1.45 0 0 1 2.9-.024v14.148a4.95 4.95 0 0 1-4.868 4.949H11.922a4.95 4.95 0 0 1-4.949-4.867V20.18a4.95 4.95 0 0 1 4.867-4.949h8.17v-.958a3.855 3.855 0 0 1 3.792-3.855h9.164zm-4.392 12.14a8.04 8.04 0 1 1 0 16.079 8.04 8.04 0 0 1 0-16.078zm0 2.899a5.14 5.14 0 1 0 0 10.281 5.14 5.14 0 0 0 0-10.281zM18.54 21.109a2.187 2.187 0 1 1 0 4.375 2.187 2.187 0 0 1 0-4.375zm28.984-8.996a1.45 1.45 0 0 1 1.45 1.426v1.718h2.132a1.45 1.45 0 0 1 .024 2.9l-2.156-.001v2.57a1.45 1.45 0 0 1-2.899.025v-2.595H43.94a1.45 1.45 0 0 1-.024-2.898h.024l2.133-.001v-1.694c0-.8.65-1.45 1.45-1.45z" fill="#A7C3FF"/>
    </g>
</svg>
