<svg xmlns="http://www.w3.org/2000/svg" width="18" height="18" viewBox="0 0 18 18">
    <g fill="none" fill-rule="evenodd">
        <g>
            <g>
                <g>
                    <path d="M0 0H18V18H0z" transform="translate(-260 -179) translate(144 177) translate(116 2)"/>
                    <path fill="#353D49" d="M15.284 14.816c.257 0 .466.209.466.466 0 .255-.204.462-.458.466H2.716c-.257 0-.466-.209-.466-.466 0-.255.204-.462.458-.466h12.576zM9.044 2.198c.73-.731 1.916-.731 2.647 0l1.056 1.056c.731.731.731 1.917 0 2.648L6.2 12.45c-.219.219-.516.342-.826.342l-2.052.001c-.645 0-1.17-.522-1.17-1.168l.002-2.053c0-.31.123-.607.342-.826zm1.988.659c-.367-.368-.963-.368-1.33 0L3.154 9.405c-.045.044-.07.104-.07.167v2.052c.003.135.108.238.237.238l2.052-.001c.063 0 .123-.025.167-.07l6.548-6.548c.368-.367.368-.963 0-1.33z" transform="translate(-260 -179) translate(144 177) translate(116 2)"/>
                </g>
            </g>
        </g>
    </g>
</svg>
