<?xml version="1.0" encoding="UTF-8"?>
<svg width="18px" height="18px" viewBox="0 0 18 18" version="1.1" xmlns="http://www.w3.org/2000/svg" xmlns:xlink="http://www.w3.org/1999/xlink">
    <title>ic_18/ic_eye_18</title>
    <g id="ic_18/ic_eye_18" stroke="none" stroke-width="1" fill="none" fill-rule="evenodd">
        <rect id="icon_area" x="0" y="0" width="18" height="18"></rect>
        <path d="M9,2.99707031 C11.9233935,2.99707031 14.5395971,4.87959641 16.8448004,8.57684044 C17.0062833,8.83583788 17.0062833,9.16416219 16.8441167,9.42425287 L16.8441167,9.42425287 L16.7765056,9.53202321 C14.4882123,13.157145 11.8944974,15.0029297 9,15.0029297 C6.0766065,15.0029297 3.46040289,13.1204036 1.15519957,9.42315956 C0.993716651,9.16416212 0.993716651,8.83583781 1.1558833,8.57574713 L1.1558833,8.57574713 L1.22349443,8.46797679 C3.51178773,4.84285499 6.10550262,2.99707031 9,2.99707031 Z M9,3.92871094 C6.47280027,3.92871094 4.14478316,5.58541512 2.01200072,8.96417272 L2.01200072,8.96417272 L1.98952734,9 L2.01035497,9.0332197 C4.12226309,12.3797161 6.42543893,14.0376299 8.92346883,14.0707817 L8.92346883,14.0707817 L9,14.0712891 C11.5271997,14.0712891 13.8552168,12.4145849 15.9879993,9.03582728 L15.9879993,9.03582728 L16.0104902,8.99998242 L15.989645,8.9667803 C13.8777369,5.62028392 11.5745611,3.96237009 9.07653117,3.92921833 L9.07653117,3.92921833 Z M9,5.37011719 C11.0047289,5.37011719 12.6298828,6.99527108 12.6298828,9 C12.6298828,11.0047289 11.0047289,12.6298828 9,12.6298828 C6.99527108,12.6298828 5.37011719,11.0047289 5.37011719,9 C5.37011719,6.99527108 6.99527108,5.37011719 9,5.37011719 Z M9,6.30175781 C7.50980199,6.30175781 6.30175781,7.50980199 6.30175781,9 C6.30175781,10.490198 7.50980199,11.6982422 9,11.6982422 C10.490198,11.6982422 11.6982422,10.490198 11.6982422,9 C11.6982422,7.50980199 10.490198,6.30175781 9,6.30175781 Z" id="🎨Color" fill="#AAADB3"></path>
    </g>
</svg>