<?xml version="1.0" encoding="UTF-8"?>
<svg width="18px" height="18px" viewBox="0 0 18 18" version="1.1" xmlns="http://www.w3.org/2000/svg" xmlns:xlink="http://www.w3.org/1999/xlink">
    <title>ic_18/ic_eye_18_hidden</title>
    <g id="ic_18/ic_eye_18_hidden" stroke="none" stroke-width="1" fill="none" fill-rule="evenodd">
        <rect id="icon_area" x="0" y="0" width="18" height="18"></rect>
        <g id="Group">
            <rect id="icon_area" x="0" y="0" width="18" height="18"></rect>
            <path d="M15.9914941,2.65889655 C16.1715891,2.83899155 16.17339,3.12986428 15.9968969,3.31217485 L15.9914941,3.31766595 L14.1210686,5.18717317 C15.0725606,6.05959681 15.9805382,7.19067706 16.8448004,8.57684044 C16.986098,8.8034632 17.0037602,9.08316434 16.897329,9.32378908 L16.8441167,9.42425287 L16.7765056,9.53202321 C14.4882123,13.157145 11.8944974,15.0029297 9,15.0029297 C7.73073334,15.0029297 6.51937462,14.6480573 5.3662357,13.9438624 L3.40555658,15.9036035 C3.22364243,16.0855176 2.92870132,16.0855176 2.74678717,15.9036035 C2.58975989,15.7465762 2.56827769,15.505332 2.68234056,15.325262 L15.2620019,2.74637689 C15.2905558,2.71697159 15.3106392,2.69118944 15.3276547,2.66403439 L15.3327247,2.65889655 C15.5146388,2.4769824 15.8095799,2.4769824 15.9914941,2.65889655 Z M13.4629577,5.84682561 L12.1370475,7.17263139 C12.4503609,7.70933768 12.6298828,8.33370404 12.6298828,9 C12.6298828,11.0047289 11.0047289,12.6298828 9,12.6298828 C8.33382974,12.6298828 7.70957326,12.4504286 7.17293516,12.1372248 L6.04763274,13.2632822 C6.90022301,13.7469128 7.77839865,14.0122951 8.68233216,14.0624992 L8.92346883,14.0707817 L9,14.0712891 C11.4456772,14.0712891 13.7048149,12.5197451 15.7809914,9.3574302 L15.9879993,9.03582728 L16.0104902,8.99998242 L15.989645,8.9667803 C15.1758823,7.67730463 14.3337215,6.63853678 13.4629577,5.84682561 Z M9,2.99707031 C10.2698058,2.99707031 11.4816544,3.3522442 12.6352336,4.0570351 L11.9541706,4.73774104 C11.1010153,4.25346151 10.2222387,3.98774029 9.31766784,3.9375008 L9.07653117,3.92921833 L9,3.92871094 C6.55432284,3.92871094 4.29518508,5.48025491 2.21900862,8.6425698 L2.01200072,8.96417272 L1.98952734,9 L2.01035497,9.0332197 C2.82454187,10.3233675 3.66715635,11.362546 4.5384039,12.1544121 L3.87915082,12.813028 C2.92757896,11.9405771 2.01952825,10.8094295 1.15519957,9.42315956 C1.01390202,9.1965368 0.996239822,8.91683566 1.10267103,8.67621092 L1.1558833,8.57574713 L1.22349443,8.46797679 C3.51178773,4.84285499 6.10550262,2.99707031 9,2.99707031 Z M11.4475037,7.8625815 L7.8625815,11.4475037 C8.20822,11.6084037 8.59361854,11.6982422 9,11.6982422 C10.490198,11.6982422 11.6982422,10.490198 11.6982422,9 C11.6982422,8.59361854 11.6084037,8.20822 11.4475037,7.8625815 Z M9,5.37011719 C9.66685249,5.37011719 10.2917053,5.54993915 10.8287133,5.86373791 L10.1388398,6.55315841 C9.79283668,6.39184283 9.40693858,6.30175781 9,6.30175781 C7.50980199,6.30175781 6.30175781,7.50980199 6.30175781,9 C6.30175781,9.40693858 6.39184283,9.79283668 6.55315841,10.1388398 L5.8634117,10.8281549 C5.54981453,10.2912722 5.37011719,9.66662138 5.37011719,9 C5.37011719,6.99527108 6.99527108,5.37011719 9,5.37011719 Z" id="Combined-Shape" fill="#AAADB3"></path>
        </g>
    </g>
</svg>