<svg width="32" height="17" viewBox="0 0 32 17" fill="none" xmlns="http://www.w3.org/2000/svg">
<path d="M0 8.5C0 4.08172 3.58172 0.5 8 0.5H24C28.4183 0.5 32 4.08172 32 8.5C32 12.9183 28.4183 16.5 24 16.5H0V8.5Z" fill="#2369FF"/>
<path d="M5.43555 12.5C5.2793 12.5 5.14258 12.4447 5.02539 12.334C4.91471 12.2168 4.85938 12.0801 4.85938 11.9238V5.63477C4.85938 5.47852 4.91471 5.34505 5.02539 5.23438C5.14258 5.11719 5.2793 5.05859 5.43555 5.05859H6.09961C6.2819 5.05859 6.44792 5.10417 6.59766 5.19531C6.7474 5.28646 6.86458 5.41016 6.94922 5.56641L8.53125 8.62305L9.25391 10.2441C9.26042 10.2637 9.27018 10.2734 9.2832 10.2734C9.30273 10.2734 9.30924 10.2637 9.30273 10.2441C9.14648 9.00065 9.06836 8.09245 9.06836 7.51953V5.63477C9.06836 5.47852 9.1237 5.34505 9.23438 5.23438C9.35156 5.11719 9.48828 5.05859 9.64453 5.05859H10.1914C10.3542 5.05859 10.4909 5.11719 10.6016 5.23438C10.7122 5.34505 10.7676 5.47852 10.7676 5.63477V11.9238C10.7676 12.0801 10.7122 12.2168 10.6016 12.334C10.4909 12.4447 10.3542 12.5 10.1914 12.5H9.52734C9.35156 12.5 9.18555 12.4544 9.0293 12.3633C8.87956 12.2721 8.76562 12.1452 8.6875 11.9824L7.10547 8.90625L6.39258 7.30469C6.38607 7.28516 6.37305 7.27539 6.35352 7.27539C6.34049 7.27539 6.33398 7.28516 6.33398 7.30469C6.34049 7.40885 6.36654 7.67578 6.41211 8.10547C6.46419 8.53516 6.5 8.89648 6.51953 9.18945C6.54557 9.48242 6.55859 9.76237 6.55859 10.0293V11.9238C6.55859 12.0801 6.50326 12.2168 6.39258 12.334C6.2819 12.4447 6.14518 12.5 5.98242 12.5H5.43555ZM13.0723 12.5C12.916 12.5 12.7793 12.4447 12.6621 12.334C12.5514 12.2168 12.4961 12.0801 12.4961 11.9238V5.63477C12.4961 5.47852 12.5514 5.34505 12.6621 5.23438C12.7793 5.11719 12.916 5.05859 13.0723 5.05859H16.6367C16.7995 5.05859 16.9362 5.11719 17.0469 5.23438C17.1576 5.34505 17.2129 5.47852 17.2129 5.63477V5.9668C17.2129 6.12305 17.1576 6.25977 17.0469 6.37695C16.9362 6.48763 16.7995 6.54297 16.6367 6.54297H14.3613C14.3092 6.54297 14.2832 6.56576 14.2832 6.61133V7.85156C14.2832 7.89714 14.3092 7.91992 14.3613 7.91992H16.1973C16.36 7.91992 16.4967 7.97852 16.6074 8.0957C16.7181 8.20638 16.7734 8.33984 16.7734 8.49609V8.84766C16.7734 9.00391 16.7181 9.14062 16.6074 9.25781C16.4967 9.36849 16.36 9.42383 16.1973 9.42383H14.3613C14.3092 9.42383 14.2832 9.44661 14.2832 9.49219V10.9277C14.2832 10.9733 14.3092 10.9961 14.3613 10.9961H16.7539C16.9102 10.9961 17.0436 11.0547 17.1543 11.1719C17.2715 11.2826 17.3301 11.416 17.3301 11.5723V11.9238C17.3301 12.0801 17.2715 12.2168 17.1543 12.334C17.0436 12.4447 16.9102 12.5 16.7539 12.5H13.0723ZM20.0156 12.5C19.8464 12.5 19.6966 12.4479 19.5664 12.3438C19.4427 12.2331 19.3646 12.0964 19.332 11.9336L18.1797 5.625C18.1732 5.59245 18.1699 5.5599 18.1699 5.52734C18.1699 5.42318 18.209 5.32552 18.2871 5.23438C18.3783 5.11719 18.4987 5.05859 18.6484 5.05859H19.332C19.4948 5.05859 19.638 5.11393 19.7617 5.22461C19.8854 5.32878 19.9603 5.46549 19.9863 5.63477L20.377 8.44727L20.6699 10.791C20.6764 10.804 20.6862 10.8105 20.6992 10.8105C20.7122 10.8105 20.7188 10.804 20.7188 10.791C20.849 10.0488 20.9954 9.26758 21.1582 8.44727L21.793 5.625C21.8255 5.46224 21.9069 5.32878 22.0371 5.22461C22.1738 5.11393 22.3268 5.05859 22.4961 5.05859H22.8379C23.0072 5.05859 23.1569 5.11068 23.2871 5.21484C23.4238 5.31901 23.5085 5.45573 23.541 5.625L24.1953 8.44727C24.2539 8.73372 24.3288 9.14714 24.4199 9.6875C24.5176 10.2214 24.5859 10.5859 24.625 10.7812C24.625 10.8008 24.6315 10.8105 24.6445 10.8105C24.6641 10.8105 24.6738 10.8008 24.6738 10.7812C24.7129 10.4818 24.765 10.0651 24.8301 9.53125C24.8952 8.99089 24.9375 8.62956 24.957 8.44727L25.3574 5.63477C25.377 5.46549 25.4486 5.32878 25.5723 5.22461C25.7025 5.11393 25.849 5.05859 26.0117 5.05859H26.5586C26.7083 5.05859 26.832 5.11719 26.9297 5.23438C27.0078 5.32552 27.0469 5.42643 27.0469 5.53711C27.0469 5.56315 27.0436 5.59245 27.0371 5.625L25.9434 11.9336C25.9173 12.0964 25.8392 12.2331 25.709 12.3438C25.5853 12.4479 25.4388 12.5 25.2695 12.5H24.1758C24.0065 12.5 23.8568 12.4479 23.7266 12.3438C23.5964 12.2331 23.515 12.0964 23.4824 11.9336L22.9258 9.25781C22.8086 8.69141 22.7142 8.125 22.6426 7.55859C22.6361 7.53906 22.623 7.5293 22.6035 7.5293C22.5905 7.5293 22.584 7.53906 22.584 7.55859C22.4408 8.4375 22.3431 9.00391 22.291 9.25781L21.7637 11.9336C21.7246 12.0964 21.64 12.2331 21.5098 12.3438C21.3861 12.4479 21.2396 12.5 21.0703 12.5H20.0156Z" fill="white"/>
</svg>
