<?xml version="1.0" encoding="UTF-8"?>
<svg width="50px" height="50px" viewBox="0 0 50 50" version="1.1" xmlns="http://www.w3.org/2000/svg" xmlns:xlink="http://www.w3.org/1999/xlink">
    <title>1-01) Icon/3) Social/1) Login/ic_apple</title>
    <defs>
        <rect id="path-1" x="3.02734375" y="3.02734375" width="43.9453125" height="43.9453125"></rect>
    </defs>
    <g id="1-01)-Icon/3)-Social/1)-Login/ic_apple" stroke="none" stroke-width="1" fill="none" fill-rule="evenodd">
        <rect id="icon_area" x="0" y="0" width="50" height="50"></rect>
        <mask id="mask-2" fill="white">
            <use xlink:href="#path-1"></use>
        </mask>
        <g id="Rectangle"></g>
        <path d="M40.7852309,33.358465 C40.6797622,33.6561945 40.5775893,33.9758967 40.4600356,34.2901056 C39.4866469,36.9257258 38.0089858,39.2658137 36.2160171,41.4103449 C35.8699477,41.8278254 35.4667495,42.2057551 35.0503677,42.5562189 C34.2274917,43.2527521 33.2804702,43.6735285 32.1851333,43.7119806 C31.3622573,43.7383478 30.5723403,43.5889338 29.8109878,43.2791193 C29.2594741,43.0538996 28.7167495,42.8023127 28.1575454,42.5990656 C26.342604,41.9398859 24.5375503,42.0266779 22.7522719,42.7320002 C22.1084731,42.986883 21.4734634,43.268133 20.8175796,43.4889582 C20.0573257,43.743841 19.2685073,43.8471125 18.4654067,43.6955012 C17.764479,43.5647638 17.1514419,43.2384699 16.5823501,42.8176935 C15.8759292,42.2947443 15.2826675,41.6575373 14.7278579,40.9829767 C12.1010268,37.7793635 10.3377212,34.1571711 9.48628074,30.0999201 C9.11933738,28.3552912 8.94355613,26.5963801 9.05122214,24.813299 C9.17756492,22.6753596 9.67414695,20.639593 10.8167251,18.8048762 C12.2504409,16.4988459 14.2730239,14.9882258 16.9339126,14.365301 C18.5346206,13.9884699 20.0913833,14.1422785 21.6173843,14.7300471 C22.4204848,15.0376642 23.2257827,15.3419855 24.0321792,15.6441096 C24.774855,15.9231623 25.5142348,15.9231623 26.2580093,15.6386164 C27.0808852,15.3244074 27.9048598,15.0112971 28.7310317,14.7047785 C29.5780776,14.3960627 30.4394057,14.1433771 31.3380874,14.071966 C32.6828139,13.9632013 33.9945815,14.137884 35.2711928,14.5652521 C37.0806411,15.1705988 38.5528091,16.2417658 39.6646255,17.8018244 C39.6942885,17.8446711 39.7272475,17.8919123 39.7492202,17.9259699 C36.9455093,19.8804377 35.3491958,22.4622248 35.5810073,25.9580744 C35.8150161,29.4561213 37.6980727,31.8225763 40.7852309,33.358465 Z M25.0583022,13.6391047 C25.8855727,13.6610773 26.6809829,13.5017756 27.44673,13.1974543 C30.9392837,11.8109797 32.7652114,8.11627752 32.7102798,5.29059393 C32.7058852,5.06317694 32.6905044,4.83575994 32.6806167,4.57208807 C32.3213637,4.62592108 31.9939712,4.65118963 31.6797622,4.73029119 C29.1298354,5.35541326 27.1676772,6.77814276 25.8778823,9.08197576 C25.1231216,10.4310969 24.7034438,11.863714 24.8319839,13.4292658 C24.8407729,13.5951594 24.9011977,13.6369074 25.0583022,13.6391047 Z" id="Shape" fill="#000000" fill-rule="nonzero" mask="url(#mask-2)"></path>
    </g>
</svg>