<?xml version="1.0" encoding="UTF-8"?>
<svg width="50px" height="50px" viewBox="0 0 50 50" version="1.1" xmlns="http://www.w3.org/2000/svg" xmlns:xlink="http://www.w3.org/1999/xlink">
    <title>1-01) Icon/3) Social/1) Login/ic_google</title>
    <defs>
        <rect id="path-1" x="2.9453125" y="2.9453125" width="44.0625" height="44.0625"></rect>
    </defs>
    <g id="1-01)-Icon/3)-Social/1)-Login/ic_google" stroke="none" stroke-width="1" fill="none" fill-rule="evenodd">
        <rect id="icon_area" x="0" y="0" width="50" height="50"></rect>
        <mask id="mask-2" fill="white">
            <use xlink:href="#path-1"></use>
        </mask>
        <g id="Rectangle"></g>
        <path d="M42.281108,25.3862345 C42.281108,24.1080579 42.1663998,22.8790418 41.9533704,21.6991865 L24.9765625,21.6991865 L24.9765625,28.671804 L34.6775956,28.671804 C34.2597301,30.925 32.9897469,32.8340715 31.0806754,34.1122482 L31.0806754,38.6350271 L36.9062113,38.6350271 C40.3146823,35.4969396 42.281108,30.8758394 42.281108,25.3862345 L42.281108,25.3862345 Z" id="Shape" fill="#4285F4" mask="url(#mask-2)"></path>
        <path d="M24.9765625,43.0021307 C29.8434659,43.0021307 33.9237991,41.388023 36.9062113,38.6350271 L31.0806754,34.1122482 C29.4665677,35.1937823 27.4018208,35.8328706 24.9765625,35.8328706 C20.2817213,35.8328706 16.3079029,32.6620093 14.8904378,28.4014205 L8.8682593,28.4014205 L8.8682593,33.0716813 C11.8342846,38.9627647 17.930204,43.0021307 24.9765625,43.0021307 L24.9765625,43.0021307 Z" id="Shape" fill="#34A853" mask="url(#mask-2)"></path>
        <path d="M14.8904378,28.4014205 C14.5299264,27.3198864 14.3250904,26.1646113 14.3250904,24.9765625 C14.3250904,23.7885137 14.5299264,22.6332386 14.8904378,21.5517045 L14.8904378,16.8814437 L8.8682593,16.8814437 C7.64743673,19.3148954 6.95099432,22.0678913 6.95099432,24.9765625 C6.95099432,27.8852337 7.64743673,30.6382296 8.8682593,33.0716813 L14.8904378,28.4014205 L14.8904378,28.4014205 Z" id="Shape" fill="#FBBC05" mask="url(#mask-2)"></path>
        <path d="M24.9765625,14.1202544 C27.6230436,14.1202544 29.9991413,15.0297262 31.8672456,16.8158962 L37.0373063,11.6458355 C33.9156056,8.73716426 29.8352725,6.95099432 24.9765625,6.95099432 C17.930204,6.95099432 11.8342846,10.9903603 8.8682593,16.8814437 L14.8904378,21.5517045 C16.3079029,17.2911157 20.2817213,14.1202544 24.9765625,14.1202544 L24.9765625,14.1202544 Z" id="Shape" fill="#EA4335" mask="url(#mask-2)"></path>
        <polygon id="Shape" mask="url(#mask-2)" points="6.95099432 6.95099432 43.0021307 6.95099432 43.0021307 43.0021307 6.95099432 43.0021307"></polygon>
    </g>
</svg>