<?xml version="1.0" encoding="UTF-8"?>
<svg width="50px" height="50px" viewBox="0 0 50 50" version="1.1" xmlns="http://www.w3.org/2000/svg" xmlns:xlink="http://www.w3.org/1999/xlink">
    <title>1-01) Icon/3) Social/1) Login/ic_fb</title>
    <defs>
        <polygon id="path-1" points="5.43804337 5.46915064 44.8501352 5.46915064 44.8501352 44.5855694 5.43804337 44.5855694"></polygon>
    </defs>
    <g id="1-01)-Icon/3)-Social/1)-Login/ic_fb" stroke="none" stroke-width="1" fill="none" fill-rule="evenodd">
        <g id="Group">
            <rect id="icon_area" x="0" y="0" width="50" height="50"></rect>
            <mask id="mask-2" fill="white">
                <use xlink:href="#path-1"></use>
            </mask>
            <g id="Clip-84"></g>
            <path d="M25.1444486,5.46740535 C14.2599835,5.46740535 5.43804337,14.2913987 5.43804337,25.1748372 C5.43804337,34.9002229 12.4828651,42.9737405 21.7462615,44.5855694 L21.7462615,44.5167844 L21.7462615,30.6119366 L16.9898262,30.6119366 L16.9898262,25.1748372 L21.7462615,25.1748372 L21.7462615,20.8331656 C21.7462615,15.8939879 25.0079051,12.943417 29.5097331,12.943417 C31.6656826,12.943417 33.9787084,13.2976087 33.9787084,13.2976087 L33.9787084,18.3794897 L31.4357146,18.3794897 C28.9881986,18.3794897 28.5426357,19.9194536 28.5426357,21.4789238 L28.5426357,25.1748372 L33.9787084,25.1748372 L33.0280374,30.6119366 L28.5426357,30.6119366 L28.5426357,44.5167844 L28.5436624,44.5167844 L28.5436624,44.5855694 C37.8060322,42.9737405 44.8518805,34.9002229 44.8518805,25.1748372 C44.8518805,14.2913987 36.0299404,5.46740535 25.1444486,5.46740535" id="Fill-83" fill="#1778F2" mask="url(#mask-2)"></path>
        </g>
    </g>
</svg>