<?xml version="1.0" encoding="UTF-8"?>
<svg width="36px" height="36px" viewBox="0 0 36 36" version="1.1" xmlns="http://www.w3.org/2000/svg" xmlns:xlink="http://www.w3.org/1999/xlink">
    <title>ic_media/ic_media_36_youtube</title>
    <g id="ic_media/ic_media_36_youtube" stroke="none" stroke-width="1" fill="none" fill-rule="evenodd">
        <g id="ic_youtube" fill-rule="nonzero">
            <path d="M17.552,0 C7.858,0 0,7.858 0,17.552 C0,27.245 7.858,35.103 17.552,35.103 C27.245,35.103 35.103,27.245 35.103,17.552 C35.103,7.858 27.245,0 17.552,0" id="Path" fill="#232A35"></path>
            <g id="Group" transform="translate(7.000000, 10.000000)" fill="#FFFFFF">
                <path d="M20.088,2.838 C19.858,1.981 19.182,1.306 18.325,1.076 C16.76,0.647 10.5,0.647 10.5,0.647 C10.5,0.647 4.24,0.647 2.675,1.059 C1.835,1.289 1.142,1.982 0.912,2.839 C0.5,4.402 0.5,7.646 0.5,7.646 C0.5,7.646 0.5,10.908 0.912,12.456 C1.142,13.312 1.818,13.988 2.675,14.218 C4.256,14.646 10.5,14.646 10.5,14.646 C10.5,14.646 16.76,14.646 18.325,14.235 C19.182,14.004 19.857,13.329 20.088,12.472 C20.5000774,10.908 20.5000774,7.662 20.5000774,7.662 C20.5000774,7.662 20.516,4.402 20.088,2.837 L20.088,2.838 Z M8.507,10.645 L8.507,4.65 L13.712,7.647 L8.507,10.645 Z" id="Shape"></path>
            </g>
        </g>
    </g>
</svg>
