<?xml version="1.0" encoding="UTF-8"?>
<svg width="36px" height="36px" viewBox="0 0 36 36" version="1.1" xmlns="http://www.w3.org/2000/svg" xmlns:xlink="http://www.w3.org/1999/xlink">
    <title>ic_media/ic_media_36_ig</title>
    <defs>
        <polygon id="path-1" points="3.97968151e-05 0.0161177101 35.1032186 0.0161177101 35.1032186 35.1192169 3.97968151e-05 35.1192169"></polygon>
    </defs>
    <g id="ic_media/ic_media_36_ig" stroke="none" stroke-width="1" fill="none" fill-rule="evenodd">
        <g id="ig">
            <g id="Group-913">
                <mask id="mask-2" fill="white">
                    <use xlink:href="#path-1"></use>
                </mask>
                <g id="Clip-912"></g>
                <path d="M3.97968151e-05,17.5676275 C3.97968151e-05,27.2611368 7.85811993,35.1192169 17.5516292,35.1192169 C27.2449394,35.1192169 35.1032186,27.2611368 35.1032186,17.5676275 C35.1032186,7.87411825 27.2449394,0.0160381165 17.5516292,0.0160381165 C7.85811993,0.0160381165 3.97968151e-05,7.87411825 3.97968151e-05,17.5676275" id="Fill-911" fill="#232A35" mask="url(#mask-2)"></path>
            </g>
            <path d="M13.703894,9.74389202 C11.5114875,9.74389202 9.72799319,11.5275853 9.72799319,13.7197928 L9.72799319,21.415104 C9.72799319,23.6077095 11.5114875,25.3914028 13.703894,25.3914028 L21.3992052,25.3914028 C23.5916117,25.3914028 25.375305,23.6077095 25.375305,21.415104 L25.375305,13.7197928 C25.375305,11.5275853 23.5916117,9.74389202 21.3992052,9.74389202 L13.703894,9.74389202 Z M21.3992052,27.6359432 L13.703894,27.6359432 C10.2738065,27.6359432 7.48345282,24.8453905 7.48345282,21.415104 L7.48345282,13.7197928 C7.48345282,10.2899043 10.2738065,7.49955063 13.703894,7.49955063 L21.3992052,7.49955063 C24.8292927,7.49955063 27.6198453,10.2899043 27.6198453,13.7197928 L27.6198453,21.415104 C27.6198453,24.8453905 24.8292927,27.6359432 21.3992052,27.6359432 L21.3992052,27.6359432 Z" id="Fill-914" fill="#F7F7F5"></path>
            <path d="M17.5516292,14.4412096 C15.8278301,14.4412096 14.4253904,15.8436494 14.4253904,17.5676474 C14.4253904,19.2914464 15.8278301,20.6938862 17.5516292,20.6938862 C19.2754282,20.6938862 20.677868,19.2914464 20.677868,17.5676474 C20.677868,15.8436494 19.2754282,14.4412096 17.5516292,14.4412096 M17.5516292,22.7139726 C14.7139173,22.7139726 12.405304,20.4053593 12.405304,17.5676474 C12.405304,14.7299355 14.7139173,12.4213222 17.5516292,12.4213222 C20.3893411,12.4213222 22.6979543,14.7299355 22.6979543,17.5676474 C22.6979543,20.4053593 20.3893411,22.7139726 17.5516292,22.7139726" id="Fill-916" fill="#F7F7F5"></path>
            <path d="M23.8280844,12.1219905 C23.8280844,12.602537 23.4384736,12.9921479 22.957927,12.9921479 C22.4773805,12.9921479 22.0877697,12.602537 22.0877697,12.1219905 C22.0877697,11.641444 22.4773805,11.2518331 22.957927,11.2518331 C23.4384736,11.2518331 23.8280844,11.641444 23.8280844,12.1219905" id="Fill-918" fill="#F7F7F5"></path>
        </g>
    </g>
</svg>
