<?xml version="1.0" encoding="UTF-8"?>
<svg width="36px" height="36px" viewBox="0 0 36 36" version="1.1" xmlns="http://www.w3.org/2000/svg" xmlns:xlink="http://www.w3.org/1999/xlink">
    <title>ic_media/ic_media_36_fb</title>
    <defs>
        <polygon id="path-1" points="0.0121778254 0.0161177101 35.1153566 0.0161177101 35.1153566 35.119197 0.0121778254 35.119197"></polygon>
    </defs>
    <g id="ic_media/ic_media_36_fb" stroke="none" stroke-width="1" fill="none" fill-rule="evenodd">
        <g id="facebook">
            <g id="Group-456">
                <mask id="mask-2" fill="white">
                    <use xlink:href="#path-1"></use>
                </mask>
                <g id="Clip-455"></g>
                <path d="M17.5637672,0.0160182181 C7.87025796,0.0160182181 0.0121778254,7.87409835 0.0121778254,17.5676076 C0.0121778254,27.2611169 7.87025796,35.119197 17.5637672,35.119197 C27.2570775,35.119197 35.1153566,27.2611169 35.1153566,17.5676076 C35.1153566,7.87409835 27.2570775,0.0160182181 17.5637672,0.0160182181" id="Fill-454" fill="#232A35" mask="url(#mask-2)"></path>
            </g>
            <path d="M22.5707239,11.0646886 L22.5707239,7.91178594 C22.5707239,7.91178594 19.3465849,7.88154036 19.1279014,7.88154036 C17.670741,7.88154036 15.5760357,9.53907771 15.5760357,11.4192782 L15.5760357,14.7942471 L12.5566513,14.7942471 L12.5566513,18.3735727 L15.535045,18.3735727 L15.535045,27.2536351 L19.0596499,27.2536351 L19.0596499,18.332582 L22.1745466,18.332582 L22.5707239,14.8352379 L19.1006406,14.8352379 L19.1006406,12.2669504 C19.1006406,11.6497018 19.5652684,11.0463821 20.2617127,11.0463821 C20.7263405,11.0463821 22.5707239,11.0646886 22.5707239,11.0646886" id="Fill-457" fill="#F7F7F5"></path>
        </g>
    </g>
</svg>
