<svg width="30" height="30" viewBox="0 0 30 30" fill="none" xmlns="http://www.w3.org/2000/svg">
<path d="M12.0117 15.3284C12.0117 16.0565 11.4215 16.6467 10.6934 16.6467C9.96525 16.6467 9.375 16.0565 9.375 15.3284C9.375 14.6003 9.96525 14.01 10.6934 14.01C11.4215 14.01 12.0117 14.6003 12.0117 15.3284Z" fill="#6596FF"/>
<path d="M20.5957 15.3284C20.5957 16.0565 20.0055 16.6467 19.2773 16.6467C18.5492 16.6467 17.959 16.0565 17.959 15.3284C17.959 14.6003 18.5492 14.01 19.2773 14.01C20.0055 14.01 20.5957 14.6003 20.5957 15.3284Z" fill="#6596FF"/>
<path d="M12.8333 18.2315C12.7544 17.8126 12.352 17.5352 11.9318 17.6113C11.5099 17.6878 11.2299 18.0918 11.3064 18.5137L12.0703 18.3752C11.3064 18.5137 11.3065 18.5141 11.3065 18.5145L11.3067 18.5154L11.307 18.5172C11.3073 18.5186 11.3076 18.52 11.3079 18.5217L11.3087 18.5259C11.3091 18.5281 11.3096 18.5305 11.3101 18.5331C11.3118 18.5419 11.3141 18.5529 11.317 18.5661C11.3227 18.5924 11.3307 18.6273 11.3416 18.6696C11.3634 18.754 11.3966 18.8688 11.4452 19.004C11.5416 19.2723 11.703 19.6335 11.9645 19.9989C12.5043 20.7533 13.4567 21.4954 15 21.4954C16.5433 21.4954 17.4957 20.7533 18.0355 19.9989C18.297 19.6335 18.4584 19.2723 18.5548 19.004C18.6034 18.8688 18.6366 18.754 18.6584 18.6696C18.6693 18.6273 18.6773 18.5924 18.683 18.5661C18.6843 18.5604 18.6854 18.5551 18.6864 18.5502L18.6872 18.5462C18.6882 18.5414 18.6891 18.537 18.6899 18.5331C18.6903 18.5313 18.6906 18.5296 18.6909 18.528C18.6914 18.5257 18.6918 18.5236 18.6921 18.5217C18.6924 18.52 18.6927 18.5186 18.693 18.5172L18.6933 18.5154L18.6935 18.5145C18.6935 18.5141 18.6936 18.5137 17.9297 18.3752L18.6936 18.5137C18.7701 18.0918 18.49 17.6878 18.0681 17.6113C17.648 17.5352 17.2456 17.8126 17.1667 18.2315C17.1666 18.2324 17.1662 18.2343 17.1656 18.237C17.1638 18.245 17.1603 18.2605 17.1547 18.2823C17.1434 18.3261 17.1239 18.3944 17.0936 18.4789C17.0321 18.65 16.9306 18.8748 16.7728 19.0953C16.4741 19.5128 15.9616 19.9426 15 19.9426C14.0384 19.9426 13.5259 19.5128 13.2272 19.0953C13.0694 18.8748 12.9679 18.65 12.9064 18.4789C12.8761 18.3944 12.8566 18.3261 12.8453 18.2823C12.8397 18.2605 12.8362 18.245 12.8344 18.237C12.8338 18.2343 12.8334 18.2324 12.8333 18.2315Z" fill="#6596FF"/>
<path fill-rule="evenodd" clip-rule="evenodd" d="M15.7764 5.28559C16.2741 5.0114 16.6113 4.48172 16.6113 3.87329C16.6113 2.98338 15.8899 2.26196 15 2.26196C14.1101 2.26196 13.3887 2.98338 13.3887 3.87329C13.3887 4.48172 13.7259 5.0114 14.2236 5.28559V6.84692H7.5C5.77681 6.84692 4.37988 8.24385 4.37988 9.96704V23.3264C4.37988 25.0496 5.77681 26.4465 7.5 26.4465H22.5C24.2232 26.4465 25.6201 25.0496 25.6201 23.3264V9.96704C25.6201 8.24385 24.2232 6.84692 22.5 6.84692H15.7764V5.28559ZM7.5 8.39966C6.63436 8.39966 5.93262 9.1014 5.93262 9.96704V23.3264C5.93262 24.1921 6.63436 24.8938 7.5 24.8938H22.5C23.3656 24.8938 24.0674 24.1921 24.0674 23.3264V9.96704C24.0674 9.1014 23.3656 8.39966 22.5 8.39966H7.5Z" fill="#6596FF"/>
<path d="M3.58887 14.01C3.58887 13.5812 3.24128 13.2336 2.8125 13.2336C2.38372 13.2336 2.03613 13.5812 2.03613 14.01V19.2834C2.03613 19.7122 2.38372 20.0598 2.8125 20.0598C3.24128 20.0598 3.58887 19.7122 3.58887 19.2834V14.01Z" fill="#6596FF"/>
<path d="M27.1875 13.2336C27.6163 13.2336 27.9639 13.5812 27.9639 14.01V19.2834C27.9639 19.7122 27.6163 20.0598 27.1875 20.0598C26.7587 20.0598 26.4111 19.7122 26.4111 19.2834V14.01C26.4111 13.5812 26.7587 13.2336 27.1875 13.2336Z" fill="#6596FF"/>
</svg>
