<svg width="12" height="13" viewBox="0 0 12 13" fill="none" xmlns="http://www.w3.org/2000/svg">
<path fill-rule="evenodd" clip-rule="evenodd" d="M5.77693 10.0912L3.22497 11.4329C3.01874 11.5413 2.76366 11.462 2.65524 11.2558C2.61206 11.1736 2.59717 11.0796 2.61285 10.9881L3.10023 8.14647C3.12631 7.99441 3.0759 7.83926 2.96542 7.73157L0.900839 5.7191C0.733994 5.55647 0.73058 5.28937 0.893214 5.12253C0.957975 5.05609 1.04283 5.01285 1.13465 4.99951L3.98783 4.58492C4.1405 4.56273 4.27249 4.46684 4.34077 4.32849L5.61675 1.74307C5.71986 1.53414 5.97283 1.44836 6.18177 1.55147C6.26497 1.59253 6.33231 1.65988 6.37337 1.74307L7.64935 4.32849C7.71763 4.46684 7.84961 4.56273 8.00229 4.58492L10.8555 4.99951C11.086 5.03302 11.2458 5.24709 11.2123 5.47767C11.199 5.56948 11.1557 5.65434 11.0893 5.7191L9.0247 7.73157C8.91422 7.83926 8.86381 7.99441 8.88989 8.14647L9.37727 10.9881C9.41666 11.2178 9.26242 11.4359 9.03278 11.4752C8.94134 11.4909 8.84727 11.476 8.76515 11.4329L6.21319 10.0912C6.07663 10.0194 5.91349 10.0194 5.77693 10.0912Z" fill="#6596FF"/>
</svg>
