<svg xmlns="http://www.w3.org/2000/svg" width="18" height="18" viewBox="0 0 18 18">
    <g fill="none" fill-rule="evenodd">
        <g>
            <g>
                <g>
                    <path d="M0 0H18V18H0z" transform="translate(-931 -3816) translate(888 3812) translate(43 4)"/>
                    <path fill="#2369FF" d="M13.596 5.328c.228.012.409.187.437.406l.002.084-.453 8.338c-.055 1.016-.814 1.858-1.754 1.94l-.15.007H6.322c-.956 0-1.76-.792-1.888-1.788l-.015-.159-.453-8.338c-.014-.257.182-.476.44-.49.228-.012.427.142.478.357l.012.083.453 8.338c.03.551.42.997.87 1.058l.103.007h5.358c.455 0 .876-.406.96-.94l.013-.125.453-8.338c.014-.257.234-.454.49-.44zM7.547 6.95c.229 0 .419.165.458.382l.008.084v5.589c0 .257-.209.466-.466.466-.229 0-.419-.165-.458-.382l-.008-.084v-5.59c0-.256.209-.465.466-.465zm2.988 0c.229 0 .42.165.459.382l.007.084v5.589c0 .257-.208.466-.466.466-.228 0-.419-.165-.458-.382l-.007-.084v-5.59c0-.256.208-.465.465-.465zm-1.064-5.1c.985 0 1.792.76 1.867 1.726l.003.093h3.108l.084.008c.217.039.382.23.382.458 0 .257-.209.466-.466.466H3.551l-.084-.008c-.217-.04-.382-.23-.382-.458 0-.257.209-.466.466-.466h3.101l.004-.1c.075-.915.805-1.643 1.72-1.713l.146-.006h.95zm0 .932h-.949c-.482 0-.88.363-.934.83l-.004.057h2.824l-.003-.057c-.05-.431-.392-.774-.824-.824l-.11-.006z" transform="translate(-931 -3816) translate(888 3812) translate(43 4)"/>
                </g>
            </g>
        </g>
    </g>
</svg>
