<svg xmlns="http://www.w3.org/2000/svg" width="24" height="25" viewBox="0 0 24 25">
    <g fill="none" fill-rule="evenodd">
        <g fill="#6596FF">
            <g>
                <g>
                    <path d="M11.843 18l-5.638 3.003c-.36.192-.805.056-.997-.304-.076-.143-.103-.308-.076-.469l1.08-6.376L1.63 9.33c-.29-.286-.293-.753-.007-1.042.113-.114.259-.188.417-.211l6.321-.931 2.819-5.786c.178-.366.619-.518.985-.34.148.072.267.192.34.34l2.818 5.786 6.32.93c.403.06.682.434.623.837-.024.158-.098.304-.212.417l-4.58 4.524 1.079 6.376c.068.401-.202.782-.604.85-.16.027-.325 0-.469-.077L11.843 18z" transform="translate(-939 -453) translate(736 312) translate(203.305 142)"/>
                </g>
            </g>
        </g>
    </g>
</svg>
