<svg xmlns="http://www.w3.org/2000/svg" width="24" height="24" viewBox="0 0 24 24">
    <g fill="none" fill-rule="evenodd">
        <g>
            <g>
                <path d="M0 0H24V24H0z" transform="translate(-208 -1321) translate(208 1321)"/>
                <path fill="#3978FF" d="M5.86 2.25h12.28c1.036 0 1.876.84 1.876 1.875v16.754c0 .518-.42.937-.938.937-.186 0-.369-.055-.524-.16l-6.03-4.061c-.317-.213-.731-.213-1.048 0l-6.03 4.062c-.43.289-1.012.175-1.302-.254-.104-.155-.16-.337-.16-.524V4.125c0-1.036.84-1.875 1.875-1.875z" transform="translate(-208 -1321) translate(208 1321)"/>
                <path fill="#FFF" d="M12 12.621l-2.52 1.325c-.158.083-.353.022-.436-.136-.034-.063-.045-.135-.033-.205l.481-2.806-2.038-1.987c-.128-.125-.13-.33-.006-.457.05-.051.114-.084.185-.094l2.817-.41 1.26-2.553c.08-.16.273-.226.433-.147.064.032.115.083.147.147l1.26 2.553 2.817.41c.177.025.3.19.274.366-.01.07-.044.135-.095.185l-2.038 1.987.481 2.806c.03.176-.088.343-.264.373-.07.012-.142.001-.205-.032L12 12.621z" transform="translate(-208 -1321) translate(208 1321)"/>
            </g>
        </g>
    </g>
</svg>
