<svg xmlns="http://www.w3.org/2000/svg" xmlns:xlink="http://www.w3.org/1999/xlink" width="38" height="38" viewBox="0 0 38 38">
    <defs>
        <path id="wjydgud9ya" d="M18.987 29.316l-8.52 4.48c-.535.28-1.197.075-1.479-.46-.112-.214-.15-.458-.11-.695l1.627-9.487-6.892-6.72c-.434-.422-.442-1.115-.02-1.548.168-.173.388-.285.627-.32l9.525-1.384 4.26-8.631c.268-.543.925-.766 1.467-.498.216.107.391.282.498.498l4.26 8.631 9.525 1.385c.599.087 1.014.642.927 1.24-.035.24-.147.46-.32.628l-6.893 6.719 1.628 9.487c.102.596-.298 1.162-.895 1.264-.237.041-.481.002-.694-.11l-8.52-4.479z"/>
    </defs>
    <g fill="none" fill-rule="evenodd">
        <g>
            <g>
                <g>
                    <g transform="translate(-597 -155) translate(460 91) translate(24 64) translate(113)">
                        <path d="M0 0H38V38H0z"/>
                        <path fill="#FFF" fill-rule="nonzero" d="M15.676 3.401l-3.656 7.407-8.174 1.188c-.804.117-1.546.495-2.113 1.077l-.043.044C.31 14.58.353 16.885 1.8 18.295l5.914 5.765-1.396 8.142c-.137.8-.007 1.624.371 2.342l.029.054c.965 1.765 3.171 2.436 4.958 1.497l7.311-3.844 7.312 3.844c.719.378 1.542.508 2.342.37l.06-.01c1.977-.372 3.297-2.263 2.956-4.253L30.26 24.06l5.915-5.765c.581-.567.96-1.31 1.076-2.114l.009-.06c.257-1.995-1.134-3.835-3.132-4.125l-8.174-1.188-3.656-7.407c-.36-.728-.949-1.318-1.677-1.677-1.83-.903-4.043-.152-4.946 1.677z"/>
                        <mask id="ea5m3t350b" fill="#fff">
                            <use xlink:href="#wjydgud9ya"/>
                        </mask>
                        <use fill="#E9EAEB" xlink:href="#wjydgud9ya"/>
                        <path fill="#FFF" d="M18.981 23.87l-3.323 1.748c-.21.11-.467.03-.577-.18-.044-.082-.059-.178-.043-.27l.635-3.701-2.69-2.621c-.168-.165-.172-.436-.007-.604.066-.068.152-.111.244-.125l3.717-.54 1.661-3.367c.105-.212.36-.299.572-.194.085.041.153.11.194.194l1.662 3.367 3.716.54c.234.034.396.25.362.484-.014.093-.058.179-.125.245l-2.689 2.62.635 3.702c.04.232-.116.453-.349.493-.092.016-.188 0-.27-.043l-3.325-1.747z" mask="url(#ea5m3t350b)"/>
                    </g>
                </g>
            </g>
        </g>
    </g>
</svg>
