<svg width="138" height="54" viewBox="0 0 138 54" fill="none" xmlns="http://www.w3.org/2000/svg">
<path d="M113.544 16.0541H116.128V12.8141H113.544V3.25074H116.197V0.0107422H104.971V2.11674C104.971 2.74314 105.472 3.25074 106.09 3.25074H107.949V12.8141H104.971V16.0541H107.949V29.1491H106.09C105.472 29.1491 104.971 29.6567 104.971 30.2831V32.3891L113.879 32.4107L114.673 29.1491H113.544V16.0541Z" fill="#232A35"/>
<path d="M124.051 0.0108H118.435V0.0918C118.413 0.54 118.408 3.1266 118.413 6.4044H115.366V8.5104C115.366 9.1368 115.867 9.6444 116.485 9.6444H118.419C118.429 13.8024 118.445 18.2844 118.456 20.79C118.461 22.113 118.307 23.436 117.993 24.7212L116.128 32.4054H121.744L123.619 24.7158C123.939 23.409 124.093 22.0698 124.083 20.7198C124.045 15.5466 123.965 2.0952 124.051 0V0.0108Z" fill="#232A35"/>
<path d="M82.9919 27.5508H77.376V32.4108H82.9919V27.5508Z" fill="#232A35"/>
<path d="M90.9842 27.5508H85.3896V32.4108H90.9842V27.5508Z" fill="#232A35"/>
<path d="M77.4878 2.44074V3.25074H74.4507L75.0848 0.0107422H69.4742L68.2114 6.49074H83.0877V1.30674H78.612C77.994 1.30674 77.4931 1.81434 77.4931 2.44074H77.4878Z" fill="#232A35"/>
<path d="M99.3868 19.2024L100.175 15.9624H90.9842V14.9148C90.9842 14.2884 90.4834 13.7808 89.8653 13.7808H85.3896V25.4448H99.2269L100.17 21.5568H90.9789V19.2024H99.3815H99.3868Z" fill="#232A35"/>
<path d="M99.3868 5.43234L100.175 2.19234H90.9842V1.14474C90.9842 0.518342 90.4834 0.0107422 89.8653 0.0107422H85.3896V11.6747H99.2269L100.17 7.78674H90.9789V5.43234H99.3815H99.3868Z" fill="#232A35"/>
<path d="M77.3972 8.59668H68.2061V25.4447H72.6817C73.2998 25.4447 73.8006 24.9371 73.8006 24.3107V22.8527H77.3972V25.4447H82.9918V8.59668H77.3972ZM77.3972 11.8367V14.1047H73.8006V11.8367H77.3972ZM73.8006 19.6127V17.3447H77.3972V19.6127H73.8006Z" fill="#232A35"/>
<path d="M135.821 3.27223C136.439 3.27223 136.94 2.76463 136.94 2.13823V0.0322266H126.23V3.27223H128.367V12.814H126.23V16.054H128.367V29.149H124.616L123.822 32.4106L136.94 32.389V30.283C136.94 29.6566 136.439 29.149 135.821 29.149H133.961V16.054H136.94V12.814H133.961V3.27223H135.821Z" fill="#232A35"/>
<path d="M68.2061 32.4108H72.9481C73.465 32.4108 73.9125 32.0544 74.0351 31.5468L75.0048 27.5508H69.3889L68.2114 32.4108H68.2061Z" fill="#232A35"/>
<path d="M93.3818 27.5508L94.3516 31.5468C94.4741 32.0544 94.9217 32.4108 95.4385 32.4108H100.181L99.0031 27.5508H93.3872H93.3818Z" fill="#232A35"/>
<path d="M11.7006 9.21252H11.5674L12.4732 5.72412L5.12028 9.38532L3.75094 14.6503C5.34939 13.6513 7.48067 13.3165 9.61194 13.9267C9.73449 13.9591 9.85171 14.0077 9.96893 14.0455C10.4165 14.1751 10.8747 14.3695 11.3862 14.6665C11.6313 14.8069 11.8604 14.9581 12.0789 15.1255H12.0842C12.1855 15.2065 12.2867 15.2875 12.3826 15.3685C14.3327 16.9453 15.3131 19.3537 14.6737 21.6433C14.0503 23.8843 12.0523 25.4125 9.64391 25.7689C9.04716 25.8715 8.4504 25.8877 7.87495 25.8229C7.37943 25.7797 6.88391 25.6933 6.38306 25.5529C4.40631 24.9913 2.84515 23.7331 1.95534 22.1995C1.85943 22.0375 1.84345 22.0051 1.84345 22.0051L1.16144 24.6079L0.532715 27.0595L0.628622 27.1999C2.76522 30.4615 6.34577 32.4109 10.2034 32.4109C16.5386 32.4109 21.6963 27.1891 21.6963 20.7631C21.6963 14.9419 17.4018 9.97932 11.7006 9.22872V9.21252Z" fill="#232A35"/>
<path d="M7.57108 0.0107422L5.12012 9.38514L12.473 5.72394H19.1812L24.211 0.0107422H7.57108Z" fill="#FA1E50"/>
<path d="M25.2715 5.71854L29.3156 5.72394L26.7048 32.3999H33.2638L36.434 0.0107422H30.2906L25.2715 5.71854Z" fill="#232A35"/>
<path d="M59.8832 12.582C60.4586 11.2374 60.7144 9.73078 60.5705 8.17018C60.1016 3.21298 55.7592 -0.421225 50.8679 0.0539752C45.9766 0.523775 42.3907 4.92478 42.8543 9.88198C42.9449 10.8378 43.1846 11.745 43.5363 12.5874C41.4849 14.688 40.2222 17.577 40.2222 20.7684C40.2222 21.7836 40.35 22.7718 40.5951 23.7114C41.8792 28.7172 46.3709 32.4108 51.7151 32.4108C57.7146 32.4108 62.6378 27.7452 63.1547 21.8052C63.1866 21.465 63.2026 21.1194 63.2026 20.7684C63.2026 17.577 61.9345 14.688 59.8832 12.582ZM46.3922 20.7684C46.3922 17.7876 48.7739 15.3738 51.7151 15.3738C54.6562 15.3738 57.0379 17.7876 57.0379 20.7684C57.0379 20.8062 57.0379 20.844 57.0379 20.8764C56.9793 23.8032 54.6189 26.163 51.7151 26.163C48.8112 26.163 46.4402 23.7924 46.3922 20.8548C46.3922 20.8278 46.3922 20.7954 46.3922 20.7684ZM48.6247 8.85598C48.6247 7.12797 50.01 5.72398 51.7151 5.72398C53.4201 5.72398 54.8054 7.12797 54.8054 8.85598C54.8054 9.08817 54.7788 9.31498 54.7308 9.53098C54.4271 10.935 53.191 11.988 51.7151 11.988C50.2392 11.988 49.003 10.935 48.6993 9.53098C48.6514 9.31498 48.6247 9.08817 48.6247 8.85598Z" fill="#232A35"/>
<path d="M6.80414 48.8594V49.9502H0.612793V48.8594H6.80414Z" fill="#2B3340"/>
<path d="M19.1654 43.5566H23.6357V44.7014H14.743V47.2826C14.7057 50.015 14.2634 52.202 13.4216 53.8382L12.5371 53.0444C13.2085 51.6674 13.5654 49.7396 13.5921 47.2826V43.5566H17.9772C17.8067 43.1948 17.6095 42.8762 17.4124 42.5738L18.6272 42.374C18.8244 42.7358 18.9949 43.13 19.1654 43.5512V43.5566ZM19.4584 45.0848V46.424H23.364V47.5418H19.4584V49.1186H22.666V53.8868H21.5151V53.3414H16.6878V53.8868H15.5369V49.1186H18.2915V45.0848H19.4531H19.4584ZM21.5151 52.2398V50.2148H16.6878V52.2398H21.5151Z" fill="#2B3340"/>
<path d="M32.699 46.4512H38.5334V47.4448H32.699V48.2278H40.3183V49.3186H32.4379V52.6234C33.429 52.4236 34.42 52.1536 35.4164 51.8026L35.6242 52.8448C34.3987 53.266 33.0027 53.6008 31.4096 53.8762L30.9567 52.8934C31.2018 52.78 31.3244 52.6342 31.3244 52.4344V49.3186H29.7046V48.2278H31.5695V42.79H39.1515V43.8808H32.6937V44.6908H38.5121V45.6844H32.6937V46.4566L32.699 46.4512ZM36.8657 50.9818C37.5637 50.6578 38.2403 50.161 38.8851 49.4914L39.631 50.2744C39.0662 50.8576 38.4322 51.3166 37.7182 51.6676C38.5387 52.2238 39.5191 52.6612 40.6593 52.9582L40.0093 53.941C37.5583 53.2444 35.8213 51.9538 34.7877 50.0422L35.6935 49.5076C36.0132 50.053 36.3915 50.5498 36.855 50.9872L36.8657 50.9818Z" fill="#2B3340"/>
<path d="M46.6699 53.7627L46.4141 52.6179C46.7444 52.6557 47.0641 52.6827 47.3678 52.6827C47.6716 52.6827 47.8314 52.5315 47.8314 52.2345V49.5669C47.3678 49.7559 46.899 49.9287 46.4354 50.1015L46.1157 48.8703C46.6912 48.7353 47.2666 48.5571 47.8314 48.3465V45.7491H46.3608V44.6205H47.8314V42.4497H48.9823V44.6205H50.3303V45.7491H48.9823V47.8605C49.3872 47.6607 49.7815 47.4609 50.1705 47.2395V48.4329C49.7762 48.6543 49.3766 48.8541 48.9823 49.0539V52.5315C48.9823 53.3523 48.5773 53.7627 47.7675 53.7627H46.6645H46.6699ZM50.8471 43.9779V42.8601H57.0865C57.0758 45.2955 56.9266 46.7481 56.6602 47.2287C56.3672 47.6985 55.8876 47.9361 55.2163 47.9361C54.9445 47.9361 54.6408 47.9091 54.2838 47.8713L54.0014 46.8399C54.3957 46.8669 54.7101 46.8885 54.9552 46.9155C55.3708 46.8885 55.6425 46.7319 55.7651 46.4079C55.861 46.0947 55.9356 45.2901 55.9622 43.9725H53.9055C53.6977 44.9661 53.426 45.7599 53.0956 46.3593C52.6641 47.0559 52.03 47.6877 51.1722 48.2601L50.4635 47.3313C51.1882 46.8831 51.7263 46.3863 52.0939 45.8409C52.387 45.3549 52.6108 44.7339 52.7653 43.9779H50.8525H50.8471ZM56.8733 53.8761H55.7224V53.4441H52.2058V53.8761H51.0549V48.5517H56.8733V53.8761ZM55.7224 52.3101V49.6911H52.2058V52.3101H55.7224Z" fill="#2B3340"/>
<path d="M63.3734 48.6489L62.9951 47.3961C64.2686 45.9543 65.2116 44.2803 65.8137 42.3687L66.906 42.8925C66.5863 43.8591 66.1814 44.7933 65.6699 45.6627V53.9085H64.5083V47.3637C64.1513 47.8119 63.773 48.2331 63.3787 48.6543L63.3734 48.6489ZM67.1351 47.5203L66.1281 46.8885C67.0445 45.5115 67.6946 44.0319 68.0782 42.4443L69.1705 42.6818C69.0586 43.0922 68.952 43.4918 68.8295 43.859H73.9765V44.6312C73.7794 45.3765 73.5503 46.1216 73.2519 46.8668L72.1383 46.5429C72.3834 46.0947 72.6018 45.5763 72.7777 45.0039H68.4299C68.0622 45.9219 67.636 46.7535 67.1458 47.5257L67.1351 47.5203ZM68.9254 47.8065C68.4938 49.5183 67.945 51.0087 67.2577 52.2993L66.1654 51.8997C66.8154 50.7441 67.3909 49.2807 67.8811 47.5041L68.9254 47.8011V47.8065ZM68.2647 53.8167L68.0089 52.6989C68.5098 52.7475 68.9893 52.7853 69.4422 52.7853C69.7353 52.7853 69.8845 52.6233 69.8845 52.2993V45.9057H71.014V52.5963C71.014 53.4009 70.6198 53.8113 69.8365 53.8113H68.27L68.2647 53.8167ZM74.2802 52.0401L73.2625 52.5099C72.799 50.7117 72.2821 49.1187 71.7174 47.7309L72.7457 47.3853C73.3318 48.8379 73.8486 50.3931 74.2802 52.0401Z" fill="#2B3340"/>
<path d="M85.0114 44.8202H80.6157V43.6916H85.0114V42.4766H86.189V43.6916H90.6007V44.8202H86.189V48.1358C87.4358 49.8638 89.1301 51.23 91.2507 52.2182L90.6114 53.3252C88.9063 52.4558 87.4358 51.3002 86.189 49.8368V53.8598H85.0114V49.8638C83.8605 51.2678 82.4006 52.4342 80.6157 53.3792L80.0029 52.31C82.1608 51.2408 83.8232 49.8746 85.0114 48.2006V44.8256V44.8202ZM81.1165 49.3994L80.3919 48.503C81.3989 47.6714 82.0703 46.5536 82.4113 45.1388L83.4876 45.3224C83.3277 45.9434 83.1306 46.4996 82.9015 47.0126C83.4663 47.3096 83.9671 47.6606 84.4307 48.0332L83.8179 49.016C83.3544 48.5948 82.8748 48.233 82.3846 47.936C82.017 48.5084 81.5907 48.989 81.1112 49.3994H81.1165ZM87.5476 49.0376L86.839 48.1196C87.6595 47.3744 88.2137 46.3916 88.5067 45.1658L89.599 45.3494C89.4658 45.9218 89.29 46.4402 89.0822 46.9154C89.7215 47.2772 90.3076 47.6876 90.8458 48.1466L90.1851 49.151C89.6576 48.6272 89.1195 48.1952 88.5813 47.8496C88.2883 48.2978 87.9419 48.692 87.553 49.043L87.5476 49.0376Z" fill="#2B3340"/>
<path d="M102.488 42.439V46.1758H107.022V47.3206H102.488V52.3102H107.965V53.455H96.9893V52.3102H101.289V42.439H102.488Z" fill="#2B3340"/>
<path d="M113.837 44.3506V43.2598H117.609V44.3506H116.288V47.245H117.449V48.325H116.288V51.2572C116.751 51.0736 117.204 50.8738 117.662 50.647V51.8242C116.511 52.348 115.286 52.7908 113.964 53.1634L113.671 52.0348C114.172 51.9376 114.678 51.7972 115.163 51.6514V48.325H113.948V47.245H115.163V44.3506H113.842H113.837ZM120.268 42.4282V46.0516C120.23 49.6426 119.506 52.2616 118.088 53.914L117.22 53.1418C118.248 51.9376 118.861 50.1394 119.058 47.7526C118.52 47.1586 117.982 46.6726 117.417 46.3L117.907 45.355C118.323 45.6304 118.728 45.976 119.122 46.3972C119.122 46.273 119.133 46.1596 119.133 46.0516V42.4282H120.273H120.268ZM120.758 44.2534V43.1734H124.775V44.2534H123.315V47.4556H124.589V48.5464H123.315V52.3696H124.956V53.4604H120.326V52.3696H122.191V48.5464H120.891V47.4556H122.191V44.2534H120.758Z" fill="#2B3340"/>
<path d="M136.86 48.8594V49.9502H130.674V48.8594H136.86Z" fill="#2B3340"/>
</svg>
