<svg width="180" height="180" viewBox="0 0 180 180" fill="none" xmlns="http://www.w3.org/2000/svg">
<g clip-path="url(#clip0_321_90924)">
<rect width="180" height="180" fill="#F4F7FF"/>
<path d="M132.934 57.6349V53H131V57.6349H132.934Z" fill="#D3E1FF"/>
<path d="M132.934 66.7116V62.0767H131V66.7116H132.934Z" fill="#D3E1FF"/>
<path d="M132.934 71.1533V75.7882H131V71.1533H132.934Z" fill="#D3E1FF"/>
<path d="M132.934 85.0583V80.4233H131V85.0583H132.934Z" fill="#D3E1FF"/>
<path d="M133.101 89.3069C133.272 90.8123 133.54 92.3011 133.901 93.7682L132.028 94.1349C131.651 92.6038 131.372 91.05 131.194 89.4793L133.101 89.3069Z" fill="#D3E1FF"/>
<path d="M137.187 102.292C136.468 100.959 135.837 99.5903 135.295 98.1904L133.513 98.7374C134.079 100.199 134.738 101.628 135.488 103.018L137.187 102.292Z" fill="#D3E1FF"/>
<path d="M139.801 106.108C140.717 107.353 141.717 108.551 142.793 109.698L141.275 110.743C140.152 109.547 139.109 108.297 138.153 106.998L139.801 106.108Z" fill="#D3E1FF"/>
<path d="M149.947 115.99C148.598 115.078 147.311 114.1 146.092 113.061L144.727 114.254C145.998 115.338 147.341 116.358 148.748 117.309L149.947 115.99Z" fill="#D3E1FF"/>
<path d="M154.068 118.661C155.545 119.445 157.074 120.155 158.647 120.787L157.818 122.331C156.177 121.671 154.582 120.93 153.04 120.112L154.068 118.661Z" fill="#D3E1FF"/>
<path d="M168.314 123.521C166.621 123.21 164.955 122.812 163.321 122.331L162.707 123.985C164.412 124.487 166.152 124.902 167.918 125.227L168.314 123.521Z" fill="#D3E1FF"/>
<path d="M173.508 124.069C174.804 124.176 176.109 124.23 177.421 124.23H178.56V126H177.421C176.053 126 174.691 125.944 173.34 125.832L173.508 124.069Z" fill="#D3E1FF"/>
<path d="M189 124.262H183.78V126H189V124.262Z" fill="#D3E1FF"/>
<path fill-rule="evenodd" clip-rule="evenodd" d="M117 39C117 29.6112 124.611 22 134 22C143.389 22 151 29.6112 151 39C151 48.3888 143.389 56 134 56C124.611 56 117 48.3888 117 39ZM143.22 39C143.22 33.9077 139.092 29.7797 134 29.7797C128.907 29.7797 124.779 33.9077 124.779 39C124.779 44.0923 128.907 48.2203 134 48.2203C139.092 48.2203 143.22 44.0923 143.22 39Z" fill="#BDD2FF"/>
<path fill-rule="evenodd" clip-rule="evenodd" d="M114 41C114 31.6112 121.611 24 131 24C140.389 24 148 31.6112 148 41C148 50.3888 140.389 58 131 58C121.611 58 114 50.3888 114 41ZM140.22 41C140.22 35.9077 136.092 31.7797 131 31.7797C125.907 31.7797 121.779 35.9077 121.779 41C121.779 46.0923 125.907 50.2203 131 50.2203C136.092 50.2203 140.22 46.0923 140.22 41Z" fill="#D3E1FF"/>
<path fill-rule="evenodd" clip-rule="evenodd" d="M5.00019 89.2C-22.7965 89.2 -45.7998 111.24 -45.7998 139H-24.1998C-24.1998 123.682 -11.3859 110.8 5.00019 110.8C21.3863 110.8 34.2002 123.682 34.2002 139H55.8002C55.8002 111.24 32.7969 89.2 5.00019 89.2Z" fill="white"/>
<path fill-rule="evenodd" clip-rule="evenodd" d="M49.5 74L116 180H-17L49.5 74Z" fill="#FEE8ED"/>
<path fill-rule="evenodd" clip-rule="evenodd" d="M98 116L138 180H58L98 116Z" fill="#D3E1FF"/>
</g>
<defs>
<clipPath id="clip0_321_90924">
<rect width="180" height="180" fill="white"/>
</clipPath>
</defs>
</svg>
