<svg xmlns:xlink="http://www.w3.org/1999/xlink" xmlns="http://www.w3.org/2000/svg" width="18" height="19" viewBox="0 0 18 19">
    <g fill="none" fill-rule="evenodd">
        <path d="M0 .5h18v18H0z"/>
        <path d="M2.628 4.159c0-1.024.821-1.855 1.841-1.872H13.5c1.024 0 1.855.821 1.872 1.841v1.359a.466.466 0 0 1-.932.008V4.16a.94.94 0 0 0-.924-.94H4.5a.94.94 0 0 0-.94.924v10.698a.94.94 0 0 0 .924.94H13.5a.94.94 0 0 0 .94-.924V7.522a.466.466 0 0 1 .932-.008v7.327a1.872 1.872 0 0 1-1.841 1.872H4.5a1.872 1.872 0 0 1-1.872-1.841V4.159zM4.93 6.45c0-.254.204-.461.458-.466h7.215a.466.466 0 0 1 .007.932H5.396a.466.466 0 0 1-.465-.466zm0 2.629c0-.255.203-.462.457-.467h.008l5.018-.008a.466.466 0 0 1 .01.931l-5.027.009a.466.466 0 0 1-.466-.465z" fill="#80858C"/>
    </g>
</svg>