<svg xmlns:xlink="http://www.w3.org/1999/xlink" xmlns="http://www.w3.org/2000/svg" width="18" height="19" viewBox="0 0 18 19" fill="none">
<path fill-rule="evenodd" clip-rule="evenodd" d="M8.98705 1.80957C6.1282 1.80957 3.81029 4.12315 3.81029 6.97754L3.81041 7.01296C3.81128 7.14275 3.81697 7.27172 3.82745 7.39967L3.82909 7.419L3.83148 7.51765C3.85198 8.39275 3.85001 9.10466 3.82036 9.67876L3.8172 9.73735C3.78202 10.3627 3.71068 10.7896 3.62775 10.9395C3.54497 11.0891 3.44379 11.2014 3.28793 11.3279L3.27697 11.3367C3.25298 11.356 3.22788 11.3755 3.19725 11.3989L3.05992 11.5028L3.03569 11.5214C2.8247 11.6842 2.69388 11.8117 2.57892 11.9928C2.42889 12.2291 2.35367 12.5065 2.35136 12.8414L2.35132 12.8612L2.35147 12.8781C2.36259 13.5636 2.92173 14.1143 3.60814 14.1143H14.366C15.0601 14.1143 15.6228 13.5516 15.6228 12.8574L15.6225 12.8206C15.6172 12.4891 15.5393 12.2144 15.3873 11.9805C15.2711 11.8016 15.1397 11.6757 14.9263 11.5121L14.7846 11.4048C14.753 11.3808 14.7274 11.3609 14.7031 11.3415C14.535 11.2066 14.431 11.0926 14.3463 10.9395C14.2617 10.7865 14.1891 10.3449 14.1548 9.69837L14.1528 9.66034L14.1501 9.60407C14.1237 9.03702 14.123 8.33989 14.1434 7.49017L14.1451 7.41926C14.1576 7.2729 14.1638 7.12557 14.1638 6.97754C14.1638 4.12315 11.8459 1.80957 8.98705 1.80957ZM8.98705 2.74121C11.3318 2.74121 13.2322 4.63807 13.2322 6.97754C13.2322 7.10332 13.2267 7.22837 13.2158 7.35248L13.2145 7.36693L13.2113 7.49784C13.1903 8.39306 13.1923 9.12547 13.2233 9.72673L13.2259 9.7744C13.2682 10.548 13.3565 11.0749 13.5312 11.3906C13.6789 11.6576 13.8581 11.8559 14.1006 12.0525L14.1139 12.0632C14.1465 12.0894 14.1792 12.1148 14.2184 12.1447L14.3491 12.2434L14.3655 12.256C14.4967 12.3571 14.5617 12.4198 14.6061 12.4881L14.6095 12.4934C14.6591 12.5722 14.6872 12.6722 14.6908 12.825L14.6909 12.8337L14.6911 12.8574C14.6911 13.037 14.5456 13.1826 14.366 13.1826H3.60814L3.60223 13.1826C3.42933 13.1795 3.28901 13.0413 3.28314 12.8688L3.28299 12.8633C3.28294 12.6855 3.31203 12.5763 3.36548 12.4921L3.3709 12.4837C3.41508 12.4172 3.48046 12.3547 3.60867 12.256L3.6664 12.2121L3.7355 12.16L3.77479 12.1301C3.80582 12.1063 3.83304 12.085 3.86017 12.0632C4.10947 11.8631 4.29248 11.6624 4.44291 11.3906C4.61756 11.075 4.7059 10.5481 4.74823 9.77448L4.75076 9.7268C4.78281 9.10627 4.78397 8.3461 4.76082 7.41086L4.75972 7.36681L4.75841 7.35209C4.74744 7.2286 4.74193 7.10365 4.74193 6.97754C4.74193 4.63807 6.64234 2.74121 8.98705 2.74121ZM10.9811 15.1953C10.9811 14.938 10.7725 14.7295 10.5153 14.7295C10.258 14.7295 10.0494 14.938 10.0494 15.1953L10.0493 15.2129C10.0399 15.7922 9.56786 16.2588 8.98706 16.2588C8.4004 16.2588 7.92468 15.7827 7.92468 15.1953L7.92461 15.1876C7.9205 14.9339 7.71355 14.7295 7.45886 14.7295C7.20159 14.7295 6.99304 14.938 6.99304 15.1953C6.99304 16.2971 7.88572 17.1904 8.98706 17.1904C10.0884 17.1904 10.9811 16.2971 10.9811 15.1953Z" fill="#80858C"/>
</svg>