<svg xmlns:xlink="http://www.w3.org/1999/xlink" xmlns="http://www.w3.org/2000/svg" width="18" height="18">
    <g fill="none" fill-rule="evenodd">
        <path d="M0 0h18v18H0z"/>
        <path d="M9 16.497A7.497 7.497 0 1 0 9 1.503a7.497 7.497 0 0 0 0 14.994zm0-.932a6.565 6.565 0 1 1 0-13.13 6.565 6.565 0 0 1 0 13.13zm-.023-9.422a.58.58 0 0 0 .594-.555v-.01l.009-.351a.58.58 0 0 0-1.16-.04v.01l-.009.352a.58.58 0 0 0 .566.594zM9 13.36a.58.58 0 0 0 .579-.571v-.01l-.009-4.922a.58.58 0 0 0-1.16-.007v.01l.009 4.921c0 .32.26.58.581.58z" fill="#80858C"/>
    </g>
</svg>