<svg xmlns:xlink="http://www.w3.org/1999/xlink" xmlns="http://www.w3.org/2000/svg" width="18" height="18" viewBox="0 0 18 18">
    <g fill="none" fill-rule="evenodd">
        <path d="M0 0h18v18H0z"/>
        <path d="M7.887 3.017a.451.451 0 1 1 0 .903H4.814c-.498 0-.903.4-.911.896v7.905c0 .499.4.903.896.911h7.889c.498 0 .903-.4.91-.896V9.897c0-.221.16-.406.371-.444l.081-.007c.25 0 .452.202.452.451v2.824c0 .992-.796 1.798-1.784 1.814H4.814A1.814 1.814 0 0 1 3 12.751v-7.92c0-.992.796-1.798 1.784-1.814h3.103zM14.129 3c.113 0 .216.04.296.108l.064.064c.05.06.086.133.1.213l.006.022c.01.054.011.11.002.164v3.025a.459.459 0 0 1-.918 0l-.001-1.986-3.043 3.044a.459.459 0 1 1-.65-.65l3.086-3.086h-2.07a.459.459 0 0 1 0-.918h3.128z" fill="#80858C"/>
    </g>
</svg>