<svg xmlns:xlink="http://www.w3.org/1999/xlink" xmlns="http://www.w3.org/2000/svg" width="18" height="19" viewBox="0 0 18 19">
    <g fill="none" fill-rule="evenodd">
        <path d="M0 .5h18v18H0z"/>
        <path d="M9 3.497c2.923 0 5.54 1.883 7.845 5.58a.8.8 0 0 1 0 .847l-.068.108c-2.289 3.625-4.883 5.47-7.777 5.47-2.923 0-5.54-1.882-7.845-5.579a.8.8 0 0 1 0-.847l.068-.108C3.512 5.343 6.106 3.498 9 3.498zm0 .932c-2.527 0-4.855 1.656-6.988 5.035L1.99 9.5l.02.033c2.112 3.347 4.415 5.005 6.913 5.038H9c2.527 0 4.855-1.656 6.988-5.035l.022-.036-.02-.033c-2.112-3.347-4.415-5.005-6.913-5.038zM9 5.87a3.63 3.63 0 1 1 0 7.26 3.63 3.63 0 0 1 0-7.26zm0 .932a2.698 2.698 0 1 0 0 5.396 2.698 2.698 0 0 0 0-5.396z" fill="#80858C"/>
    </g>
</svg>