<svg xmlns:xlink="http://www.w3.org/1999/xlink" xmlns="http://www.w3.org/2000/svg" width="18" height="18">
    <g fill="none" fill-rule="evenodd">
        <path d="M0 0h18v18H0z"/>
        <path d="m9.75 1.63.013.011 1.685 1.451a.466.466 0 0 1-.601.711l-.006-.005-1.686-1.45a.237.237 0 0 0-.305-.005l-.005.004L2.162 8.1a.237.237 0 0 0 .15.418h1.852v.49h.021v5.022c0 .811.448 1.426.926 1.438h1.717l.001-3.953a1.17 1.17 0 0 1 1.042-1.162l.127-.007h2.022a1.17 1.17 0 0 1 1.162 1.041l.006.128v3.952l1.672.001c.479 0 .931-.606.94-1.414V9.447v.001-.931h1.883a.237.237 0 0 0 .16-.414l-.005-.004-2.853-2.455a.466.466 0 0 1 .602-.711l.006.005 2.853 2.455a1.169 1.169 0 0 1-.751 2.055h-.963v4.58c0 1.272-.786 2.349-1.84 2.37H5.125c-1.059 0-1.856-1.064-1.871-2.33l-.001-4.62h-.936a1.169 1.169 0 0 1-.771-2.047l.008-.008 6.683-5.752a1.169 1.169 0 0 1 1.512-.01zm.275 9.646H7.998a.237.237 0 0 0-.229.175l-.008.063v3.946h2.496v-3.946a.237.237 0 0 0-.232-.238z" fill="#80858C"/>
    </g>
</svg>