<svg xmlns:xlink="http://www.w3.org/1999/xlink" xmlns="http://www.w3.org/2000/svg" width="18" height="18">
    <g fill="none" fill-rule="evenodd">
        <path d="M0 0h18v18H0z"/>
        <path d="M8.534 1.564v.114a6.97 6.97 0 0 1-6.74 6.852l-.114.003-.12.001h-.018c-.597.024-.591.927.019.932h.118a6.97 6.97 0 0 1 6.854 6.854l.001.12c.005.615.927.615.932 0v-.119l.003-.112a6.97 6.97 0 0 1 6.739-6.74l.112-.002.12-.001h.018c.597-.024.591-.927-.019-.932h-.12l-.113-.004a6.97 6.97 0 0 1-6.74-6.852v-.114c0-.614-.913-.62-.932-.018v.018zM9 4.243l.009.025a7.924 7.924 0 0 0 4.718 4.721l.03.011-.004.001A7.924 7.924 0 0 0 9 13.754L9 13.756l-.001-.003A7.924 7.924 0 0 0 4.246 9L4.244 9l.03-.01A7.924 7.924 0 0 0 8.99 4.267L9 4.243z" fill="#80858C"/>
    </g>
</svg>