<svg xmlns:xlink="http://www.w3.org/1999/xlink" xmlns="http://www.w3.org/2000/svg" width="18" height="19" viewBox="0 0 18 19">
    <g fill="none" fill-rule="evenodd">
        <path d="M0 .5h18v18H0z"/>
        <path d="M14.238 3.058c1.034 0 1.872.838 1.872 1.872v7.119a1.872 1.872 0 0 1-1.872 1.872h-1.927l-1.424 2.428c-.095.163-.23.3-.39.4l-.014.009-.013.007a1.169 1.169 0 0 1-1.59-.4l-.007-.013-1.427-2.431H3.762A1.872 1.872 0 0 1 1.89 12.08V4.93c0-1.034.838-1.872 1.872-1.872zm0 .931H3.762a.94.94 0 0 0-.94.94v7.12c0 .52.42.94.94.94h3.951c.165 0 .318.088.402.23l1.559 2.657.003.005c.07.11.208.144.317.084l.004-.003.01-.006a.237.237 0 0 0 .072-.073l.004-.006 1.559-2.658a.466.466 0 0 1 .402-.23h2.193a.94.94 0 0 0 .94-.94v-7.12a.94.94 0 0 0-.94-.94zM5.616 7.786a.703.703 0 1 1 0 1.406.703.703 0 0 1 0-1.406zm3.393 0a.703.703 0 1 1 0 1.406.703.703 0 0 1 0-1.406zm3.392 0a.703.703 0 1 1 0 1.406.703.703 0 0 1 0-1.406z" fill="#80858C"/>
    </g>
</svg>