<svg xmlns:xlink="http://www.w3.org/1999/xlink" xmlns="http://www.w3.org/2000/svg" width="18" height="19" viewBox="0 0 18 19">
    <g fill="none" fill-rule="evenodd">
        <path d="M0 .5h18v18H0z"/>
        <path d="M4.122 15.898a1.872 1.872 0 0 1-1.872-1.84V4.973c0-1.024.821-1.856 1.841-1.872h2.787c.522 0 1.02.217 1.374.6l.01.011.786.863a.237.237 0 0 0 .169.078h4.134c1.023 0 1.855.821 1.871 1.84v.542a1.872 1.872 0 0 1 1.582 2.325l-1.324 5.133a1.872 1.872 0 0 1-1.813 1.404H4.122zm10.87-7.945H5.855a.94.94 0 0 0-.91.706L3.62 13.79a.94.94 0 0 0 .91 1.176h9.137a.94.94 0 0 0 .911-.706l1.324-5.133a.94.94 0 0 0-.91-1.175zm-8.103-3.92H4.122a.94.94 0 0 0-.94.925l-.001 6.806.862-3.338c.2-.775.867-1.331 1.654-1.398l.158-.007h8.436v-.495a.94.94 0 0 0-.925-.94H9.223c-.325 0-.636-.136-.857-.374l-.007-.009-.786-.862a.94.94 0 0 0-.684-.308z" fill="#80858C"/>
    </g>
</svg>