<?xml version="1.0" encoding="UTF-8"?>
<svg width="34px" height="18px" viewBox="0 0 34 18" version="1.1" xmlns="http://www.w3.org/2000/svg" xmlns:xlink="http://www.w3.org/1999/xlink">
    <title>Group</title>
    <g id="Page-1" stroke="none" stroke-width="1" fill="none" fill-rule="evenodd">
        <g id="熊班訊息_企業對話視窗_完成邀請" transform="translate(-593.000000, -803.000000)">
            <g id="Black-+-New-Tag-/-Top" transform="translate(578.000000, 793.000000)">
                <g id="Group" transform="translate(15.000000, 10.000000)">
                    <rect id="Rectangle" fill="#FFFFFF" x="0" y="0" width="34" height="18" rx="4"></rect>
                    <g id="icon/ic_new" transform="translate(6.000000, 5.000000)" fill="#333333" fill-rule="nonzero">
                        <path d="M0.549982244,7.32620968 C0.400833771,7.32620968 0.271884422,7.27328682 0.163130327,7.16743952 C0.0543762318,7.06159221 0,6.93608944 0,6.79092742 L0,0.948185484 C0,0.803023468 0.0543762318,0.677520691 0.163130327,0.571673387 C0.271884422,0.465826084 0.400833771,0.412903226 0.549982244,0.412903226 L1.18386009,0.412903226 C1.35786664,0.412903226 1.51633451,0.455241512 1.65926847,0.539919355 C1.80220242,0.624597198 1.9140621,0.739515403 1.99485085,0.884677419 L3.50497159,3.72439516 L4.19477983,5.23044355 C4.20099435,5.2485888 4.2118696,5.25766129 4.22740589,5.25766129 C4.24294219,5.25766129 4.24760301,5.2485888 4.24138849,5.23044355 C4.09224002,4.07519584 4.0176669,3.23145427 4.0176669,2.69919355 L4.0176669,0.948185484 C4.0176669,0.803023468 4.07204314,0.677520691 4.18079723,0.571673387 C4.28955133,0.465826084 4.41850067,0.412903226 4.56764915,0.412903226 L5.08966619,0.412903226 C5.24502919,0.412903226 5.37553214,0.465826084 5.48117898,0.571673387 C5.58682581,0.677520691 5.63964844,0.803023468 5.63964844,0.948185484 L5.63964844,6.79092742 C5.63964844,6.93608944 5.58682581,7.06159221 5.48117898,7.16743952 C5.37553214,7.27328682 5.24502919,7.32620968 5.08966619,7.32620968 L4.45578835,7.32620968 C4.28799632,7.32620968 4.13108205,7.28387139 3.98504084,7.19919355 C3.83899962,7.11451571 3.72869355,6.99657334 3.65411932,6.8453629 L2.14399858,3.9875 L1.46351207,2.49959677 C1.45729755,2.48145152 1.44642231,2.47237903 1.43088601,2.47237903 C1.41534971,2.47237903 1.40758168,2.48145152 1.40758168,2.49959677 C1.4137962,2.59637145 1.44020751,2.84435284 1.48681641,3.24354839 C1.5334253,3.64274393 1.56760465,3.97842606 1.58935547,4.25060484 C1.61110629,4.52278362 1.62198153,4.78286166 1.62198153,5.03084677 L1.62198153,6.79092742 C1.62198153,6.93608944 1.56915891,7.06159221 1.46351207,7.16743952 C1.35786524,7.27328682 1.22736228,7.32620968 1.07199929,7.32620968 L0.549982244,7.32620968 Z M8.05169863,7.32620968 C7.90255015,7.32620968 7.7736008,7.27328682 7.66484671,7.16743952 C7.55609261,7.06159221 7.50171638,6.93608944 7.50171638,6.79092742 L7.50171638,0.948185484 C7.50171638,0.803023468 7.55609261,0.677520691 7.66484671,0.571673387 C7.7736008,0.465826084 7.90255015,0.412903226 8.05169863,0.412903226 L11.4541312,0.412903226 C11.6094941,0.412903226 11.7399971,0.465826084 11.8456439,0.571673387 C11.9512908,0.677520691 12.0041134,0.803023468 12.0041134,0.948185484 L12.0041134,1.25665323 C12.0041134,1.40181524 11.9512908,1.52731802 11.8456439,1.63316532 C11.7399971,1.73901263 11.6094941,1.79193548 11.4541312,1.79193548 L9.28216738,1.79193548 C9.23245122,1.79193548 9.20759351,1.81310463 9.20759351,1.85544355 L9.20759351,3.00766129 C9.20759351,3.05000021 9.23245122,3.07116935 9.28216738,3.07116935 L11.0346532,3.07116935 C11.1900162,3.07116935 11.3205191,3.12409221 11.426166,3.22993952 C11.5318128,3.33578682 11.5846354,3.4612896 11.5846354,3.60645161 L11.5846354,3.93306452 C11.5846354,4.07822653 11.5318128,4.20372931 11.426166,4.30957661 C11.3205191,4.41542392 11.1900162,4.46834677 11.0346532,4.46834677 L9.28216738,4.46834677 C9.23245122,4.46834677 9.20759351,4.48951592 9.20759351,4.53185484 L9.20759351,5.86552419 C9.20759351,5.90786311 9.23245122,5.92903226 9.28216738,5.92903226 L11.565992,5.92903226 C11.7151404,5.92903226 11.8440898,5.98195512 11.9528439,6.08780242 C12.061598,6.19364972 12.1159742,6.3191525 12.1159742,6.46431452 L12.1159742,6.79092742 C12.1159742,6.93608944 12.061598,7.06159221 11.9528439,7.16743952 C11.8440898,7.27328682 11.7151404,7.32620968 11.565992,7.32620968 L8.05169863,7.32620968 Z M14.891572,7.32620968 C14.7299945,7.32620968 14.5886163,7.27631098 14.4674331,7.1765121 C14.34625,7.07671321 14.2701233,6.95121043 14.2390507,6.8 L13.1390862,0.939112903 C13.1328717,0.908870817 13.1297644,0.878629183 13.1297644,0.848387097 C13.1297644,0.751612419 13.167051,0.66088752 13.2416252,0.576209677 C13.3286285,0.467338165 13.4435954,0.412903226 13.5865294,0.412903226 L14.2390507,0.412903226 C14.3944137,0.412903226 14.531131,0.46280192 14.6492069,0.562600806 C14.7672828,0.662399693 14.8387487,0.790926633 14.8636068,0.948185484 L15.2364761,3.56108871 L15.5161281,5.73850806 C15.5223426,5.7506049 15.5316642,5.75665323 15.5440933,5.75665323 C15.5565223,5.75665323 15.5627367,5.7506049 15.5627367,5.73850806 C15.6870271,5.04898849 15.8268517,4.32318929 15.9822147,3.56108871 L16.5881274,0.939112903 C16.6192,0.78790247 16.6984339,0.662399693 16.8258316,0.562600806 C16.9532292,0.46280192 17.0977146,0.412903226 17.2592921,0.412903226 L17.5855528,0.412903226 C17.7471303,0.412903226 17.8916157,0.461289839 18.0190134,0.558064516 C18.146411,0.654839194 18.225645,0.781854052 18.2567176,0.939112903 L18.8812737,3.56108871 C18.9372044,3.82721907 19.0102239,4.20977573 19.1003344,4.70877016 C19.1904449,5.20776459 19.2541428,5.54798296 19.2914299,5.72943548 C19.2914299,5.74758074 19.299198,5.75665323 19.3147343,5.75665323 C19.3302706,5.75665323 19.3380386,5.74758074 19.3380386,5.72943548 C19.3753257,5.45120829 19.4250411,5.0626033 19.4871863,4.56360887 C19.5493315,4.06461444 19.5897253,3.7304444 19.6083688,3.56108871 L19.9905599,0.948185484 C20.0092035,0.790926633 20.0791158,0.662399693 20.2002989,0.562600806 C20.321482,0.46280192 20.459753,0.412903226 20.615116,0.412903226 L21.137133,0.412903226 C21.280067,0.412903226 21.3981411,0.467338165 21.4913589,0.576209677 C21.5659331,0.66088752 21.6032197,0.754636583 21.6032197,0.857459677 C21.6032197,0.881653347 21.6001125,0.908870817 21.593898,0.939112903 L20.5498639,6.8 C20.5250058,6.95121043 20.4519863,7.07671321 20.3308031,7.1765121 C20.20962,7.27631098 20.0682418,7.32620968 19.9066643,7.32620968 L18.8626302,7.32620968 C18.7010527,7.32620968 18.5581209,7.27631098 18.4338305,7.1765121 C18.3095401,7.07671321 18.2318598,6.95121043 18.2007872,6.8 L17.6694484,4.3141129 C17.557587,3.78790059 17.4674779,3.26169618 17.3991181,2.73548387 C17.3929036,2.71733862 17.3820284,2.70826613 17.3664921,2.70826613 C17.3509558,2.70826613 17.3431877,2.71733862 17.3431877,2.73548387 C17.2064683,3.55202021 17.1132519,4.07822463 17.0635357,4.3141129 L16.5601622,6.8 C16.5228751,6.95121043 16.4436411,7.07671321 16.322458,7.1765121 C16.2012748,7.27631098 16.0598966,7.32620968 15.8983191,7.32620968 L14.891572,7.32620968 Z" id="NEW"></path>
                    </g>
                </g>
            </g>
        </g>
    </g>
</svg>